<svg width="200" height="200" viewBox="0 0 200 200" fill="none" xmlns="http://www.w3.org/2000/svg">
<path d="M63.3735 209.286C41.0488 198.863 22.879 181.221 11.7918 159.201C0.704692 137.179 -2.65399 112.063 2.25697 87.8978C7.16794 63.733 20.0626 41.927 38.863 25.9936C57.6635 10.0604 81.2749 0.927572 105.892 0.0669197C130.51 -0.793732 154.7 6.66803 174.566 21.2495C194.43 35.8312 208.813 56.6835 215.395 80.4466C221.979 104.21 220.378 129.499 210.852 152.241C201.326 174.982 184.429 193.851 162.886 205.806L109.72 109.786L63.3735 209.286Z" fill="#111827"/>
<path d="M162.781 205.864C147.672 214.226 130.804 218.901 113.549 219.504C96.2953 220.108 79.1426 216.625 63.4872 209.338L109.72 109.785L162.781 205.864Z" fill="white"/>
</svg>